{"glyphs":{":":{"x_min":0,"x_max":312,"ha":312,"o":"m 188 305 q 172 303 163 303 q 157 303 152 303 q 139 306 133 307 q 61 327 46 397 l 43 416 q 43 476 84 510 q 115 538 162 538 q 169 538 183 536 q 230 527 256 494 q 283 462 283 415 q 283 376 256 345 q 229 314 188 305 z m 188 -9 q 180 -11 164 -11 q 146 -11 133 -7 q 61 13 46 83 l 43 101 q 43 131 52 154 q 62 177 84 196 q 117 223 160 223 q 165 223 171 223 q 179 221 183 221 q 231 213 257 180 q 283 148 283 100 q 283 61 256 30 q 229 -1 188 -9 z"},"$":{"x_min":0,"x_max":583,"ha":583,"o":"m 441 25 q 414 9 382 1 l 382 -56 l 190 -56 l 190 -9 q 135 2 82 21 l 38 38 l 87 251 q 127 227 173 212 q 197 204 220 199 l 225 198 l 268 193 q 273 192 281 192 q 322 192 322 223 q 322 230 320 240 q 318 251 302 258 l 168 306 q 158 310 151 312 q 144 315 136 320 q 82 349 52 394 q 21 439 21 494 q 21 521 22 533 q 24 545 30 566 q 51 636 121 681 q 159 705 194 713 l 194 749 l 384 749 l 384 720 q 462 707 536 678 l 483 484 l 447 502 q 414 517 388 524 q 362 532 343 534 q 316 534 300 532 q 283 531 270 519 q 262 509 262 499 q 262 488 271 483 q 285 474 301 468 l 344 455 l 415 431 q 438 424 468 403 q 512 373 536 328 q 560 284 560 228 q 560 203 554 176 q 534 77 441 25 z"},"?":{"x_min":0,"x_max":477,"ha":477,"o":"m 425 376 q 394 318 340 286 q 286 254 219 254 q 205 254 191 254 q 178 257 165 259 q 152 261 131 269 l 131 423 l 141 420 q 173 414 180 413 q 188 412 198 412 q 211 412 221 417 q 260 436 260 469 q 260 480 258 487 q 252 511 223 524 q 211 530 193 530 q 163 530 129 511 l 107 497 l -14 651 q 42 702 118 721 q 157 731 195 731 q 217 731 237 728 q 316 714 358 686 q 400 658 429 601 q 442 576 448 546 q 455 515 455 482 q 455 455 448 429 q 440 403 425 376 z m 229 -9 q 221 -11 205 -11 q 199 -11 194 -11 q 181 -8 175 -7 q 103 13 87 83 l 84 101 q 84 131 94 154 q 103 177 125 196 q 158 223 202 223 q 207 223 213 223 q 221 221 225 221 q 272 213 298 180 q 325 148 325 100 q 325 60 298 30 q 271 -1 229 -9 z"},"a":{"x_min":0,"x_max":622,"ha":622,"o":"m 578 0 l 369 0 l 369 74 l 324 0 l 299 -1 q 209 -1 147 33 q 106 56 73 95 q 14 169 14 259 q 14 282 19 314 q 31 381 58 424 q 84 466 134 497 q 160 514 185 523 q 210 532 226 533 q 241 534 251 535 q 261 536 271 536 q 339 536 388 502 l 396 526 l 578 526 l 578 202 l 629 202 z m 369 287 q 369 303 356 318 q 342 334 326 337 q 310 340 304 340 q 285 340 266 329 l 251 316 q 232 296 232 270 q 232 231 267 213 q 286 203 351 203 l 369 204 z"},"L":{"x_min":0,"x_max":404,"ha":404,"o":"m 367 0 l 43 0 l 43 504 l -7 504 l 43 720 l 267 720 l 267 224 l 418 224 z"},"3":{"x_min":0,"x_max":638,"ha":638,"o":"m 524 101 q 505 68 474 44 q 443 19 396 4 q 377 -3 354 -6 q 331 -10 298 -10 q 279 -10 261 -10 q 235 -7 222 -6 q 122 7 54 43 l 110 244 l 141 229 q 174 216 206 208 q 237 199 256 199 q 277 199 296 209 q 314 219 314 241 q 314 249 309 257 q 301 271 278 278 q 256 284 204 284 l 110 284 l 159 450 l 267 450 q 277 450 284 459 q 291 468 291 479 q 291 500 275 510 q 259 520 221 520 q 211 520 202 520 q 192 520 167 518 q 142 515 107 502 l 165 718 q 186 724 192 725 q 214 730 234 730 q 325 730 374 720 q 422 711 455 685 q 532 623 532 538 q 532 462 470 393 l 454 376 q 463 372 469 368 q 479 360 484 357 q 512 334 529 305 q 556 260 556 210 q 556 156 524 101 z"},";":{"x_min":0,"x_max":312,"ha":312,"o":"m 188 305 q 172 303 163 303 q 157 303 152 303 q 139 306 133 307 q 61 327 46 397 l 43 416 q 43 476 84 510 q 115 538 162 538 q 169 538 183 536 q 230 527 256 494 q 283 462 283 415 q 283 376 256 345 q 229 314 188 305 z m 147 -72 q 139 -75 130 -77 q 120 -79 115 -80 l 103 -71 q 116 -36 125 1 q 97 10 75 32 q 60 49 52 66 q 43 83 43 103 q 42 110 42 114 q 42 163 74 192 q 107 222 163 222 q 232 222 266 147 q 276 122 276 96 q 276 82 271 60 q 261 17 228 -20 q 194 -56 147 -72 z"},"J":{"x_min":0,"x_max":419,"ha":419,"o":"m 369 156 q 341 69 267 24 q 238 5 203 -3 q 168 -11 125 -11 q 73 -11 12 17 l -14 30 l 42 237 l 57 226 q 85 210 107 210 q 147 210 158 267 q 160 273 160 284 l 160 506 l 1 506 l 52 720 l 383 720 l 383 236 q 383 217 380 198 q 377 179 369 156 z"},"V":{"x_min":0,"x_max":629,"ha":629,"o":"m 401 0 l 196 0 l -22 720 l 206 720 l 306 358 l 421 720 l 651 720 z"},"7":{"x_min":0,"x_max":638,"ha":638,"o":"m 338 0 l 104 0 l 257 504 l 106 504 l 170 720 l 559 720 z"},"S":{"x_min":0,"x_max":575,"ha":575,"o":"m 506 90 q 481 55 451 34 q 421 13 380 0 q 339 -14 266 -14 q 238 -14 209 -9 q 180 -4 126 12 q 73 28 22 56 l 79 264 l 112 249 q 169 224 204 212 q 238 201 254 201 q 260 200 269 200 q 285 200 299 206 q 317 215 317 234 q 317 242 312 251 q 306 260 297 264 l 293 266 l 257 280 l 170 313 q 94 342 60 392 q 25 443 25 523 q 25 576 46 617 q 68 658 110 689 q 141 712 176 722 q 211 733 267 733 q 286 733 307 732 q 328 731 349 728 l 356 752 l 545 715 l 481 486 q 437 513 400 523 q 340 540 316 540 q 303 540 290 536 q 278 532 272 524 q 266 516 266 506 q 266 498 272 491 q 277 484 286 481 l 389 444 l 423 430 q 554 361 554 231 q 554 214 551 194 q 542 139 506 90 z"},"Z":{"x_min":0,"x_max":508,"ha":508,"o":"m 320 220 l 489 220 l 433 0 l 7 0 l 182 503 l 12 503 l 68 720 l 494 720 z"},"x":{"x_min":0,"x_max":602,"ha":602,"o":"m 380 0 l 303 144 l 233 0 l -14 0 l 156 276 l -5 526 l 247 526 l 299 406 l 357 526 l 593 526 l 439 279 l 616 0 z"},")":{"x_min":0,"x_max":345,"ha":345,"o":"m 286 178 q 276 135 234 29 l 223 0 l 7 0 l 23 41 q 54 129 65 163 q 90 244 90 336 q 90 452 80 515 q 67 595 24 715 l 12 749 l 230 749 l 244 709 q 286 594 297 522 q 308 450 308 324 q 308 263 286 178 z"},"&":{"x_min":0,"x_max":661,"ha":661,"o":"m 604 267 l 576 267 l 576 0 l 220 0 q 194 0 167 10 q 140 19 112 39 q 48 84 34 160 q 28 189 28 213 q 28 268 52 310 q 75 351 118 374 l 139 384 l 124 395 q 58 447 58 533 q 58 548 61 566 q 68 610 96 646 q 124 682 172 706 q 219 730 277 730 q 318 730 358 719 l 394 709 q 423 698 444 688 q 466 678 465 674 l 368 526 l 357 532 q 332 544 317 548 q 302 553 290 551 q 275 548 262 537 q 249 526 249 509 q 249 486 270 474 q 280 468 300 466 q 319 464 361 464 l 383 467 l 379 489 l 583 538 l 583 473 l 647 472 z m 374 295 l 312 295 q 261 295 251 253 q 249 247 249 237 q 249 182 333 182 l 374 182 z"},"_":{"x_min":0,"x_max":562,"ha":562,"o":"m -7 0 l -7 36 l 569 36 l 569 0 z"},"v":{"x_min":0,"x_max":511,"ha":511,"o":"m 373 0 l 131 0 l -22 526 l 198 526 l 262 240 l 318 526 l 533 526 z"},"O":{"x_min":0,"x_max":796,"ha":796,"o":"m 751 210 q 729 162 702 128 q 674 93 628 59 q 603 41 574 27 q 545 13 505 1 q 480 -6 443 -9 q 406 -12 371 -12 l 319 -5 q 257 7 212 30 q 168 54 128 95 q 77 146 52 196 q 27 247 18 313 q 16 328 15 344 q 14 360 14 390 q 14 415 20 441 q 27 467 39 497 q 70 577 144 642 q 194 684 246 706 q 298 727 368 733 q 377 733 386 733 q 395 733 404 734 q 418 734 425 733 q 474 733 515 720 q 556 706 604 676 q 653 647 691 602 q 709 582 722 561 q 746 526 759 489 q 772 452 779 404 q 780 390 782 378 q 783 366 783 351 q 783 286 751 210 z m 420 504 q 414 505 400 505 q 360 505 324 485 q 304 474 289 457 q 251 416 251 364 q 251 353 252 347 q 257 298 290 263 q 324 228 374 220 q 383 218 399 218 q 416 218 424 220 q 502 233 531 304 q 537 319 540 329 q 542 339 542 351 q 542 410 510 452 q 478 494 420 504 z"},"(":{"x_min":0,"x_max":345,"ha":345,"o":"m 323 707 q 290 617 280 585 q 256 507 256 412 q 256 293 266 224 q 277 155 321 33 l 334 0 l 116 0 l 101 40 q 59 155 48 227 q 37 299 37 425 q 37 478 59 571 q 72 617 82 646 q 82 647 111 720 l 123 749 l 338 749 z"},"C":{"x_min":0,"x_max":664,"ha":664,"o":"m 545 449 l 516 471 q 450 514 399 514 q 379 514 359 508 q 322 497 298 473 q 248 424 248 368 q 248 347 256 320 q 278 253 352 225 q 374 217 397 217 q 459 217 526 274 l 542 289 l 641 83 q 600 45 546 22 q 493 -1 428 -8 q 418 -9 410 -10 q 402 -10 396 -10 q 333 -10 267 15 q 224 30 189 52 q 154 73 124 103 q 81 146 60 184 q 38 222 25 277 q 20 299 17 321 q 14 343 14 362 q 14 378 17 400 q 20 423 25 447 q 34 492 60 539 q 102 621 179 673 q 193 682 210 691 q 226 700 242 707 q 310 734 374 734 q 400 734 430 731 l 455 727 l 469 752 l 650 683 z"},"W":{"x_min":0,"x_max":876,"ha":876,"o":"m 754 0 l 520 0 l 444 305 l 368 0 l 132 0 l -14 720 l 207 720 l 266 409 l 347 720 l 533 720 l 616 414 l 670 720 l 890 720 z"},"A":{"x_min":0,"x_max":677,"ha":677,"o":"m 461 0 l 441 100 l 238 100 l 209 0 l -22 0 l 119 526 l 69 526 l 139 720 l 496 720 l 699 0 z m 339 503 l 284 290 l 396 290 z"},"f":{"x_min":0,"x_max":338,"ha":338,"o":"m 307 566 l 290 569 q 273 568 262 555 q 251 542 252 526 l 350 526 l 300 329 l 260 329 l 260 0 l 51 0 l 51 329 l -14 329 l 36 526 l 52 526 l 52 587 l 53 608 q 63 675 98 708 q 134 741 204 748 l 223 749 l 352 749 z"},"Q":{"x_min":0,"x_max":785,"ha":785,"o":"m 726 185 l 713 161 l 763 117 l 626 -9 l 583 37 q 529 7 469 -5 q 422 -14 382 -14 q 324 -14 265 6 l 220 24 q 181 43 162 58 q 143 74 111 110 l 90 136 l 85 142 l 62 176 q 37 219 25 266 q 13 313 13 361 q 13 423 26 466 q 39 509 71 560 q 85 584 107 609 q 156 665 213 694 q 270 724 349 731 q 364 732 375 732 q 386 733 393 733 q 455 733 518 712 q 544 703 564 692 q 585 682 612 664 q 639 645 661 624 q 683 602 702 574 q 771 473 771 369 q 771 354 771 340 q 768 319 767 309 q 759 249 726 185 z m 507 447 q 482 478 456 492 q 431 506 392 506 q 311 506 267 442 q 240 401 240 358 q 240 318 262 284 q 283 250 324 229 q 353 214 386 214 q 401 214 416 217 l 376 259 l 501 373 l 537 337 l 538 365 q 534 413 507 447 z"},"w":{"x_min":0,"x_max":832,"ha":832,"o":"m 681 0 l 480 0 l 415 232 l 349 0 l 148 0 l -22 526 l 196 526 l 261 266 l 335 526 l 497 526 l 576 266 l 629 526 l 854 526 z"},"-":{"x_min":0,"x_max":272,"ha":272,"o":"m 0 239 l 0 376 l 272 376 l 272 239 z"},"E":{"x_min":0,"x_max":557,"ha":557,"o":"m 493 496 l 267 496 l 267 455 l 530 455 l 482 269 l 267 269 l 267 225 l 526 225 l 473 0 l 43 0 l 43 502 l -7 502 l 43 720 l 341 720 l 350 749 l 550 749 z"},"s":{"x_min":0,"x_max":438,"ha":438,"o":"m 269 -5 q 248 -9 217 -9 q 156 -9 74 15 l 52 22 l 35 28 l 18 34 l 61 203 l 86 189 l 103 179 l 111 175 l 123 170 q 138 164 154 160 q 171 155 178 155 q 190 155 200 162 q 210 169 210 181 q 210 189 203 196 l 178 208 l 117 227 q 19 257 19 353 q 19 369 20 378 q 21 387 26 407 q 37 450 64 478 q 90 505 137 522 q 168 533 211 533 q 244 533 270 528 q 297 524 332 512 q 368 499 402 478 l 353 323 q 328 341 311 349 q 270 365 257 365 q 249 365 240 360 q 232 354 232 342 q 232 334 238 328 l 247 323 l 329 294 l 351 284 q 425 242 425 165 q 425 144 421 125 q 410 73 374 40 q 337 8 269 -5 z"},"l":{"x_min":0,"x_max":296,"ha":296,"o":"m 252 0 l 43 0 l 43 547 l -7 547 l 58 749 l 252 749 l 252 202 l 303 202 z"},"8":{"x_min":0,"x_max":641,"ha":641,"o":"m 511 70 q 478 34 439 15 q 400 -4 345 -10 q 334 -12 323 -12 q 312 -12 306 -12 q 282 -12 263 -8 q 171 12 124 68 q 92 106 78 133 q 65 160 62 182 q 58 205 58 227 q 58 310 126 375 l 144 391 q 119 418 106 450 q 94 481 94 516 q 94 532 97 549 q 106 601 126 632 q 146 662 189 691 q 207 703 232 713 q 257 723 282 727 q 307 731 327 731 q 351 731 376 725 q 402 719 425 708 q 483 679 514 630 q 544 582 544 525 q 544 464 509 409 l 501 399 q 578 337 578 234 q 578 197 566 159 q 548 109 511 70 z m 296 553 q 273 542 268 518 q 267 513 267 504 q 267 499 267 495 q 269 491 269 490 q 275 474 286 464 q 298 455 318 455 q 341 455 356 471 q 372 487 372 514 q 370 534 356 546 q 342 559 321 559 q 308 559 296 553 z m 350 290 q 336 300 319 300 q 287 300 272 268 q 264 254 266 241 q 266 221 282 206 q 299 190 322 190 q 357 190 371 224 q 375 233 375 245 q 375 273 350 290 z"},"e":{"x_min":0,"x_max":570,"ha":570,"o":"m 245 220 q 258 195 281 182 q 304 170 348 165 q 353 164 358 164 q 364 164 370 164 q 415 164 504 183 l 531 190 l 483 6 l 443 0 q 395 -6 352 -6 q 194 -6 104 70 q 14 145 14 265 q 14 281 15 290 q 16 300 19 321 q 28 370 48 406 q 110 520 245 534 q 253 534 264 535 q 276 536 287 536 q 336 536 372 523 q 455 495 504 430 q 558 357 558 253 l 559 220 z m 270 387 q 246 383 231 366 q 216 348 216 324 l 347 324 q 347 351 328 370 q 310 388 283 388 q 274 388 270 387 z"},"b":{"x_min":0,"x_max":627,"ha":627,"o":"m 565 100 q 510 23 422 4 q 390 -4 358 -4 q 297 -4 254 36 l 225 0 l 43 0 l 43 547 l -7 547 l 43 749 l 252 749 l 252 431 l 304 531 l 340 531 q 390 531 420 524 q 450 516 484 497 q 544 463 578 406 q 613 350 613 276 q 613 217 604 178 q 594 140 565 100 z m 361 323 q 344 332 311 332 q 302 332 294 332 q 287 332 273 330 l 255 327 l 253 309 q 253 265 262 239 q 270 213 289 200 q 308 186 331 186 q 364 186 383 212 q 402 237 402 262 q 402 302 361 323 z"},"%":{"x_min":0,"x_max":842,"ha":842,"o":"m 664 -4 q 646 -7 627 -7 q 608 -7 590 -4 q 518 9 479 59 q 440 109 440 187 q 440 265 479 315 q 518 365 590 378 q 599 379 607 380 q 615 382 627 382 q 633 382 642 381 q 652 380 664 378 q 735 365 774 315 q 813 265 813 187 q 813 109 774 59 q 735 9 664 -4 z m 219 -24 l 157 15 l 616 740 l 678 699 z m 248 347 q 231 344 216 344 q 200 344 183 347 q 53 367 32 503 l 29 539 l 32 576 q 53 712 183 732 q 191 733 198 734 q 206 734 216 734 q 222 734 230 734 q 238 733 248 732 q 377 712 400 576 q 402 567 402 558 q 402 548 402 539 q 402 530 402 525 q 402 517 400 503 q 377 367 248 347 z m 663 208 q 663 259 654 279 q 646 299 628 299 q 622 299 614 297 q 605 295 598 276 q 591 257 591 208 l 591 187 l 591 167 q 591 115 599 95 q 607 75 625 75 q 628 75 638 78 q 649 80 656 98 q 663 117 663 166 z m 249 560 q 249 598 244 616 q 240 633 232 638 q 225 644 216 644 q 199 644 191 626 q 187 615 185 603 q 183 591 183 560 l 182 539 l 183 519 q 183 472 192 454 q 200 435 216 435 q 233 435 241 452 q 249 470 249 518 z"},"m":{"x_min":0,"x_max":896,"ha":896,"o":"m 853 0 l 652 0 l 652 284 q 652 331 586 331 q 580 331 564 329 l 549 325 l 549 0 l 347 0 l 347 283 q 347 294 339 305 q 331 316 316 325 q 300 334 281 334 q 271 334 257 331 l 245 327 l 245 0 l 43 0 l 43 336 l -7 336 l 43 526 l 245 526 l 245 429 l 286 526 l 412 526 q 453 526 496 492 q 516 476 534 448 q 538 442 543 433 q 545 430 547 423 l 594 526 l 706 526 q 749 526 774 515 q 798 504 822 472 q 837 451 847 415 q 853 388 853 374 l 853 202 l 903 202 z"},",":{"x_min":0,"x_max":290,"ha":290,"o":"m 133 -72 q 125 -75 116 -77 q 106 -79 101 -80 l 89 -71 q 102 -36 111 1 q 83 10 61 32 q 46 49 38 66 q 29 83 29 103 q 28 110 28 114 q 28 163 60 192 q 93 222 149 222 q 218 222 252 147 q 262 122 262 96 q 262 82 257 60 q 247 17 214 -20 q 180 -56 133 -72 z"},"n":{"x_min":0,"x_max":592,"ha":592,"o":"m 549 0 l 347 0 l 347 291 q 347 308 332 320 q 317 331 291 331 q 283 331 274 330 q 265 329 255 326 l 245 323 l 245 0 l 43 0 l 43 330 l -7 330 l 43 526 l 245 526 l 245 435 l 287 526 l 402 526 q 437 526 457 520 q 477 514 498 498 q 519 482 531 459 q 549 427 549 380 l 549 202 l 599 202 z"},"h":{"x_min":0,"x_max":599,"ha":599,"o":"m 556 0 l 347 0 l 347 287 q 347 329 285 329 q 273 329 266 328 l 252 326 l 252 0 l 43 0 l 43 547 l -7 547 l 48 749 l 252 749 l 252 446 l 294 526 l 417 526 q 454 526 486 506 q 518 487 533 462 q 548 436 555 389 l 556 372 l 556 202 l 606 202 z"},"z":{"x_min":0,"x_max":401,"ha":401,"o":"m 335 0 l 7 0 l 118 328 l 21 328 l 69 526 l 387 526 l 281 202 l 387 202 z"},"B":{"x_min":0,"x_max":641,"ha":641,"o":"m 521 33 q 495 16 467 8 q 439 0 404 0 l 43 0 l 43 510 l -7 510 l 43 720 l 413 720 q 467 720 512 692 q 594 640 594 546 q 594 538 594 535 q 594 529 592 515 q 579 427 504 381 l 522 368 q 574 328 593 290 q 612 251 612 191 q 612 93 521 33 z m 300 526 l 259 526 l 259 442 l 308 442 q 319 442 330 444 q 340 446 348 448 q 375 459 375 485 q 375 497 366 508 q 357 519 344 522 q 331 526 300 526 z m 294 298 l 259 298 l 259 201 l 298 201 l 330 203 q 348 203 360 218 q 371 233 369 252 q 369 298 294 298 z"},"K":{"x_min":0,"x_max":641,"ha":641,"o":"m 406 0 l 267 253 l 267 0 l 43 0 l 43 509 l -7 509 l 43 720 l 267 720 l 267 478 l 406 720 l 647 720 l 456 377 l 663 0 z"},"R":{"x_min":0,"x_max":646,"ha":646,"o":"m 364 0 l 267 213 l 267 0 l 43 0 l 43 508 l -7 508 l 43 720 l 365 720 l 390 719 q 457 710 500 685 q 551 655 582 608 q 612 560 622 494 q 622 492 623 468 q 624 444 624 437 q 618 370 594 324 q 570 279 524 245 l 507 233 l 632 0 z m 321 511 l 267 511 l 267 392 l 321 392 q 398 392 398 448 q 398 453 396 467 q 391 490 374 500 q 356 511 321 511 z"},"T":{"x_min":0,"x_max":518,"ha":518,"o":"m 474 504 l 342 504 l 342 0 l 119 0 l 118 507 l -14 507 l 36 720 l 323 720 l 329 749 l 532 749 z"},"P":{"x_min":0,"x_max":592,"ha":592,"o":"m 494 225 q 451 188 415 172 q 379 157 336 157 l 267 157 l 267 0 l 43 0 l 43 506 l -7 506 l 43 720 l 309 720 q 324 720 333 719 q 342 718 359 715 q 542 682 579 501 q 583 485 584 470 q 585 455 585 435 q 585 366 562 315 q 540 264 494 225 z m 317 500 l 267 500 l 267 368 l 310 368 q 326 368 342 382 q 357 397 360 414 q 363 432 363 438 q 363 467 350 484 q 336 500 317 500 z"},"t":{"x_min":0,"x_max":323,"ha":323,"o":"m 295 329 l 259 329 l 259 0 l 50 0 l 50 329 l -22 329 l 28 526 l 50 526 l 50 597 l 259 648 l 259 526 l 345 526 z"},"M":{"x_min":0,"x_max":775,"ha":775,"o":"m 530 0 l 530 401 l 402 246 l 267 390 l 267 0 l 43 0 l 43 500 l -7 500 l 43 720 l 269 720 l 399 568 l 519 720 l 739 720 l 739 0 z"},"g":{"x_min":0,"x_max":603,"ha":603,"o":"m 408 -176 q 388 -182 350 -184 q 313 -186 260 -186 q 199 -186 156 -174 q 112 -162 60 -133 l 99 28 q 155 2 198 -5 q 240 -12 268 -12 q 360 -12 360 55 l 360 106 l 320 29 l 294 28 q 215 28 180 37 q 103 55 60 112 q 14 172 14 262 q 14 270 14 279 q 16 291 16 297 q 22 362 60 420 q 114 500 204 526 q 245 537 275 537 q 300 537 322 530 q 343 523 361 510 l 375 526 l 567 526 l 567 16 q 567 -66 532 -108 q 497 -150 408 -176 z m 358 269 q 358 299 343 319 q 328 339 305 339 q 267 339 245 321 q 223 303 223 271 q 223 238 250 222 q 278 206 340 206 l 358 208 z"},"j":{"x_min":0,"x_max":292,"ha":292,"o":"m 261 570 l 52 570 l 99 749 l 310 749 z m 247 -68 q 218 -154 119 -170 l 86 -173 l -50 -173 l -12 -11 l -1 -12 q 28 -12 38 -4 q 47 3 47 27 l 47 331 l -3 331 l 47 526 l 256 526 l 256 -20 q 256 -38 247 -68 z"},"i":{"x_min":0,"x_max":296,"ha":296,"o":"m 255 570 l 46 570 l 92 749 l 303 749 z m 253 0 l 43 0 l 43 329 l -7 329 l 44 526 l 253 526 l 253 202 l 303 202 z"},"y":{"x_min":0,"x_max":590,"ha":590,"o":"m 347 -182 q 319 -186 284 -186 q 231 -186 147 -171 q 98 -163 48 -142 q 69 -72 83 -6 l 86 9 l 89 25 l 135 9 q 210 -13 259 -13 q 307 -13 330 6 q 353 25 353 61 l 353 113 l 310 34 l 190 34 l 173 35 q 43 53 43 152 l 43 319 l -7 319 l 43 526 l 248 526 l 248 270 q 248 204 316 204 q 328 204 338 206 q 347 207 353 210 l 353 526 l 554 526 l 554 19 q 554 -74 507 -122 q 460 -169 347 -182 z"},".":{"x_min":0,"x_max":298,"ha":298,"o":"m 174 -9 q 166 -11 150 -11 q 132 -11 119 -7 q 47 13 32 83 l 29 101 q 29 131 38 154 q 48 177 70 196 q 103 223 146 223 q 151 223 157 223 q 165 221 169 221 q 217 213 243 180 q 269 148 269 100 q 269 61 242 30 q 215 -1 174 -9 z"},"p":{"x_min":0,"x_max":635,"ha":635,"o":"m 556 79 q 524 44 486 24 q 449 5 397 -2 q 383 -4 371 -5 q 359 -6 343 -6 q 299 -6 252 8 l 252 -173 l 43 -173 l 43 334 l -7 334 l 43 526 l 252 526 l 252 441 l 299 526 l 392 526 q 467 526 534 469 q 597 417 616 321 q 617 313 619 294 q 621 276 621 256 q 621 203 604 158 q 587 113 556 79 z m 268 324 l 252 323 l 252 277 q 252 240 266 218 q 279 197 303 190 q 327 184 343 184 q 377 184 395 213 q 403 225 404 234 q 405 244 405 256 q 405 294 374 309 q 344 324 268 324 z"},"X":{"x_min":0,"x_max":652,"ha":652,"o":"m 428 0 l 323 207 l 212 0 l -22 0 l 187 374 l -3 720 l 247 720 l 321 563 l 407 720 l 653 720 l 463 374 l 674 0 z"},"*":{"x_min":0,"x_max":419,"ha":419,"o":"m 250 526 l 356 435 l 329 419 l 302 402 l 275 386 l 248 370 l 210 511 l 151 376 l 102 415 l 52 454 l 172 543 l 22 543 q 34 572 44 604 q 55 636 63 669 l 186 585 l 145 729 q 156 729 161 729 q 170 729 175 729 q 183 729 187 729 q 205 729 224 729 q 243 729 262 730 q 269 730 273 730 l 236 586 l 366 659 q 370 633 372 620 q 375 608 380 587 l 397 526 z"},"Y":{"x_min":0,"x_max":587,"ha":587,"o":"m 409 324 l 409 0 l 186 0 l 186 324 l -29 720 l 224 720 l 294 563 l 368 720 l 616 720 z"},"c":{"x_min":0,"x_max":404,"ha":404,"o":"m 347 323 q 326 336 305 336 q 264 336 242 314 q 217 286 217 254 q 217 221 240 202 q 264 182 304 182 q 318 182 333 185 l 345 187 l 384 1 l 351 -5 q 326 -9 296 -9 q 239 -9 190 9 q 140 27 104 60 q 28 131 17 220 q 15 231 14 246 q 13 262 13 273 q 13 314 24 344 q 34 375 61 414 q 68 425 76 434 q 85 444 98 456 q 172 523 256 534 q 277 537 297 537 q 350 537 397 516 z"},"!":{"x_min":0,"x_max":323,"ha":323,"o":"m 58 266 l 58 526 l 14 526 l 67 720 l 279 720 l 279 266 z m 192 -9 q 184 -11 168 -11 q 150 -11 137 -7 q 65 13 50 83 l 47 101 q 47 131 56 154 q 66 177 88 196 q 121 223 164 223 q 169 223 175 223 q 183 221 187 221 q 235 213 261 180 q 287 148 287 100 q 287 61 260 30 q 233 -1 192 -9 z"},"/":{"x_min":0,"x_max":526,"ha":526,"o":"m 131 0 l 14 0 l 397 720 l 512 720 z"},"6":{"x_min":0,"x_max":638,"ha":638,"o":"m 462 24 q 432 8 398 -2 q 364 -11 325 -11 q 304 -11 288 -10 q 273 -9 256 -5 q 181 10 132 47 q 53 107 35 201 q 31 223 30 232 q 30 242 30 248 q 30 277 40 318 q 49 359 65 387 l 250 720 l 511 720 l 391 513 l 419 507 l 431 503 l 445 498 q 524 469 566 410 q 607 350 607 268 q 607 244 605 231 q 603 218 602 211 q 581 87 462 24 z m 371 297 q 353 327 318 327 q 297 327 283 314 l 269 299 q 264 291 261 280 q 258 269 258 261 l 260 246 q 264 228 280 216 q 296 204 316 204 q 326 204 335 207 q 356 213 371 236 q 379 249 379 267 q 379 284 371 297 z"},"r":{"x_min":0,"x_max":387,"ha":387,"o":"m 348 310 l 328 313 q 309 316 284 302 q 259 289 248 241 l 246 227 l 246 0 l 43 0 l 43 328 l -7 328 l 43 526 l 246 526 l 246 475 q 279 515 348 532 q 373 537 393 537 q 404 536 409 536 z"},"2":{"x_min":0,"x_max":638,"ha":638,"o":"m 514 0 l 62 0 l 320 441 l 326 455 q 328 461 328 465 q 328 472 328 475 q 328 484 327 488 q 320 511 294 511 q 284 511 272 505 q 249 493 249 466 q 249 459 252 451 q 253 448 256 443 l 71 388 q 47 435 47 491 q 47 517 53 544 q 70 626 139 679 q 208 732 302 732 q 324 732 347 729 l 379 722 q 438 706 475 673 q 548 607 548 501 q 548 439 520 392 l 427 232 l 579 232 z"},"9":{"x_min":0,"x_max":638,"ha":638,"o":"m 599 405 q 594 382 588 366 q 582 350 572 333 l 387 0 l 126 0 l 246 205 l 218 212 l 206 216 l 192 221 q 115 250 73 309 q 31 368 31 450 q 31 460 32 468 q 32 477 36 507 q 55 629 175 695 q 204 710 240 720 q 276 729 313 729 q 330 729 348 728 q 365 727 381 724 q 418 717 449 704 q 480 690 506 671 q 584 613 602 519 q 605 502 606 494 q 607 486 607 468 q 607 440 599 405 z m 302 512 q 279 504 268 485 q 258 466 258 451 q 258 436 267 421 q 285 391 319 391 q 340 391 354 404 l 368 420 q 379 437 379 458 q 379 482 362 498 q 344 515 320 515 q 311 515 302 512 z"}," ":{"x_min":0,"x_max":290,"ha":290,"o":""},"I":{"x_min":0,"x_max":302,"ha":302,"o":"m 43 0 l 43 507 l -7 507 l 45 720 l 266 720 l 266 0 z"},"H":{"x_min":0,"x_max":686,"ha":686,"o":"m 427 0 l 427 251 l 267 251 l 267 0 l 43 0 l 43 508 l -7 508 l 43 720 l 267 720 l 267 480 l 427 480 l 427 720 l 650 720 l 650 0 z"},"4":{"x_min":0,"x_max":637,"ha":637,"o":"m 565 113 l 531 113 l 531 0 l 308 0 l 308 113 l 5 113 l 5 359 l 219 720 l 500 720 l 239 317 l 308 316 l 308 406 l 531 451 l 531 322 l 617 322 z"},"D":{"x_min":0,"x_max":651,"ha":651,"o":"m 614 236 q 579 144 505 83 q 453 39 394 20 q 335 0 254 0 l 43 0 l 43 505 l -7 505 l 43 720 l 299 720 q 429 720 529 629 q 588 574 615 503 q 627 471 632 434 q 636 398 636 343 q 636 318 630 292 q 625 266 614 236 z m 337 489 q 307 504 267 504 l 267 227 l 287 227 q 341 232 374 268 q 408 305 408 362 q 408 377 405 394 q 391 460 337 489 z"},"0":{"x_min":0,"x_max":640,"ha":640,"o":"m 609 257 q 584 145 532 82 q 481 19 398 -3 q 357 -14 320 -14 q 298 -14 271 -9 q 210 3 166 34 q 123 64 98 96 q 73 128 53 178 q 45 199 37 232 q 29 264 24 301 l 22 329 l 22 361 q 22 415 28 450 q 33 484 44 520 q 103 693 254 727 l 293 733 q 359 733 413 715 q 467 697 511 655 q 537 630 556 602 q 574 574 590 532 q 600 505 608 470 q 616 436 616 399 l 616 341 q 616 333 616 330 q 616 304 615 292 q 614 280 609 257 z m 391 412 q 387 452 380 470 q 374 488 361 500 q 339 520 317 520 q 287 520 268 486 q 256 463 250 440 q 245 417 245 376 q 245 309 252 276 q 259 243 278 226 q 297 208 321 208 q 354 208 370 236 q 373 241 376 252 q 380 262 384 276 q 388 290 390 306 q 393 322 393 340 q 393 365 393 377 q 393 386 393 390 q 393 398 391 412 z"},"F":{"x_min":0,"x_max":537,"ha":537,"o":"m 490 496 l 267 496 l 267 444 l 509 444 l 460 241 l 267 241 l 267 0 l 43 0 l 43 509 l -7 509 l 43 720 l 337 720 l 347 749 l 551 749 z"},"`":{"x_min":0,"x_max":270,"ha":270,"o":"m 89 577 l -36 749 l 167 749 l 241 577 z"},"k":{"x_min":0,"x_max":562,"ha":562,"o":"m 346 0 l 252 209 l 252 0 l 43 0 l 43 547 l -7 547 l 43 749 l 252 749 l 252 367 l 331 526 l 551 526 l 425 288 l 576 0 z"},"u":{"x_min":0,"x_max":593,"ha":593,"o":"m 550 0 l 349 0 l 349 101 l 297 0 l 199 0 q 153 0 114 25 q 64 58 50 118 q 43 146 43 160 l 43 336 l -7 336 l 43 526 l 245 526 l 245 273 q 245 202 303 202 l 349 202 l 349 526 l 550 526 l 550 202 l 600 202 z"},"U":{"x_min":0,"x_max":668,"ha":668,"o":"m 619 177 q 565 7 379 -11 q 367 -13 354 -13 q 340 -13 333 -13 q 231 -13 159 33 q 87 79 61 156 q 51 184 47 206 q 43 228 43 242 l 43 507 l -7 507 l 43 720 l 267 720 l 267 271 q 267 246 285 229 q 303 212 334 212 q 367 212 388 231 q 409 250 409 283 l 409 720 l 632 720 l 632 256 q 632 238 629 218 q 626 198 619 177 z"},"o":{"x_min":0,"x_max":591,"ha":591,"o":"m 538 125 q 474 21 355 -6 q 324 -13 289 -13 q 191 -13 114 49 q 74 82 52 118 q 30 155 18 210 l 14 238 q 14 245 14 254 q 13 262 13 265 q 13 360 82 441 q 147 515 251 530 q 272 533 295 533 q 308 533 315 532 q 364 532 403 515 q 442 498 484 463 q 506 445 519 426 q 576 352 576 263 q 576 188 538 125 z m 315 335 q 303 338 291 338 q 286 338 276 336 q 248 330 231 312 q 214 293 214 266 q 209 209 260 188 q 273 183 281 181 q 286 180 295 180 q 322 180 342 196 q 362 212 368 238 q 371 250 371 262 q 371 317 315 335 z"},"N":{"x_min":0,"x_max":686,"ha":686,"o":"m 469 0 l 267 321 l 267 0 l 43 0 l 43 526 l -7 526 l 43 720 l 270 720 l 427 474 l 427 720 l 650 720 l 650 0 z"},"G":{"x_min":0,"x_max":782,"ha":782,"o":"m 759 317 q 740 232 718 188 q 697 143 651 96 q 623 68 592 47 q 546 17 500 2 q 453 -13 401 -13 q 377 -13 351 -10 q 267 -2 202 35 q 172 52 149 71 q 126 90 103 117 q 55 175 34 232 q 13 290 13 367 q 13 473 69 558 q 87 586 110 609 q 144 645 178 668 q 212 692 248 706 q 285 721 320 728 q 355 735 386 735 q 451 735 501 707 l 515 720 l 672 637 l 511 466 l 499 473 l 480 482 q 451 495 428 500 q 405 504 386 504 q 341 504 306 482 q 272 460 253 420 q 247 408 246 404 q 241 390 241 374 q 240 366 240 352 q 240 294 283 252 q 312 223 344 216 q 376 208 399 208 q 438 208 468 230 q 476 236 482 243 q 489 250 497 260 l 381 260 l 430 446 l 765 446 l 766 432 l 767 415 q 767 356 759 317 z"},"q":{"x_min":0,"x_max":622,"ha":622,"o":"m 577 -173 l 368 -173 l 368 118 l 331 -1 q 319 -2 310 -2 q 301 -3 296 -3 q 266 -3 234 5 q 189 17 162 28 q 134 40 114 56 q 77 83 57 113 q 37 143 23 190 q 19 204 18 214 q 16 223 14 240 q 13 257 12 268 q 12 280 12 287 q 12 339 27 377 q 42 415 76 452 q 90 468 108 481 q 156 518 211 529 q 229 532 243 534 q 257 536 271 536 q 302 536 326 527 q 351 518 374 501 l 383 526 l 577 526 l 577 35 l 628 35 z m 368 244 l 368 266 q 361 345 298 345 q 225 345 219 281 q 219 242 240 220 q 261 199 310 199 q 320 199 324 199 q 350 199 368 204 z"},"d":{"x_min":0,"x_max":617,"ha":617,"o":"m 574 0 l 365 0 l 365 90 l 328 0 l 228 0 q 208 0 182 10 q 156 20 123 41 q 37 98 18 212 q 15 230 14 238 q 13 246 13 263 q 13 295 22 327 q 55 455 154 506 q 178 519 203 525 q 228 531 262 531 q 270 531 279 531 q 292 529 313 528 q 334 526 365 516 l 365 547 l 326 547 l 371 749 l 574 749 l 574 202 l 624 202 z m 364 267 q 355 344 296 344 q 284 344 269 342 q 254 339 237 320 q 220 302 220 276 q 220 234 247 216 q 274 197 344 197 l 361 198 l 364 220 q 365 227 365 233 q 365 238 365 240 q 365 247 365 254 q 364 260 364 267 z"},"1":{"x_min":0,"x_max":637,"ha":637,"o":"m 205 0 l 205 501 l 155 501 l 206 720 l 429 720 l 429 0 z"},"5":{"x_min":0,"x_max":639,"ha":639,"o":"m 508 98 q 471 44 414 16 q 358 -13 285 -13 q 223 -13 158 8 q 92 30 38 69 l 155 247 l 182 227 l 194 220 l 210 210 q 240 193 265 193 q 272 193 282 195 q 312 202 326 223 q 335 235 335 250 q 335 275 310 289 q 295 298 276 300 l 260 301 l 98 301 l 98 720 l 515 720 l 459 510 l 309 510 l 309 475 q 370 475 424 451 q 556 391 556 232 q 556 167 508 98 z"}}}
